<svg
      xmlns="http://www.w3.org/2000/svg"
      width="24"
      height="24"
      viewBox="0 0 24 24"
    >
      <g fill="none" fillRule="evenodd" stroke="none" strokeWidth="1">
        <path
          fill="currentColor"
          d="M17.5 2a2 2 0 012 2v16a2 2 0 01-2 2h-11a2 2 0 01-2-2V4a2 2 0 012-2h11zm0 2h-11v16h11V4zm-1.75 13a1 1 0 010 2h-2.5a1 1 0 010-2h2.5zm-5 0a1 1 0 010 2h-2.5a1 1 0 010-2h2.5zm5-3.25a1 1 0 010 2h-7.5a1 1 0 010-2h7.5zm.596-7.957a1 1 0 010 1.414l-2.829 2.829-.017.016a1 1 0 01-1.433.02l-.793-.794-2.207 2.208a1 1 0 11-1.414-1.415l2.828-2.828a.998.998 0 01.794-.29.998.998 0 01.792.29l.707.706 2.157-2.156a1 1 0 011.415 0z"
        ></path>
      </g>
    </svg>