<svg
  xmlns="http://www.w3.org/2000/svg"
  width="24"
  height="24"
  fill="none"
  viewBox="0 0 24 24"
>
  <path
    fill="currentColor"
    fillRule="evenodd"
    d="M21 19.5a1 1 0 110 2H3a1 1 0 110-2V19a3 3 0 013-3v-4.5a1 1 0 112 0v4.499h3V11.5a1 1 0 112 0l-.001 4.499H16V11.5a1 1 0 112 0l-.001 4.499a3.002 3.002 0 012.996 2.825L21 19v.5zm-2-12a1 1 0 110 2H5a1 1 0 010-2h14zm-7.023-5l9.394 3.749a1 1 0 01.629.929V7.5a.677.677 0 01-.928.629L12.002 4.5 2.927 8.129A.677.677 0 012 7.5v-.324a1 1 0 01.628-.928L11.977 2.5zM19 19l-.007-.117a1 1 0 00-.876-.876L18 18l1-.001h-.98L18 18H6l-.02-.002H5V18h1l-.117.007a1 1 0 00-.876.876L5 19v-.899L4.997 19H5v.499h14V19h.003L19 18.155V19z"
    clipRule="evenodd"
  ></path>
</svg>