<svg
  xmlns="http://www.w3.org/2000/svg"
  width="24"
  height="24"
  viewBox="0 0 24 24"
>
  <g fill="none" fillRule="evenodd" stroke="none" strokeWidth="1">
    <path
      fill="currentColor"
      d="M6.528 11.067a1 1 0 011.32.083l.015.015.078.087a1 1 0 01-.078 1.327l-2.466 2.466h11.649a.954.954 0 010 1.91l-11.49-.001 2.58 2.58.08.09a.954.954 0 01-1.43 1.259l-4.368-4.369-.079-.09a.954.954 0 01.08-1.259l.024-.024.008-.008 3.983-3.983zm10.944-8l.094.083 3.983 3.983.008.008.025.024c.343.344.37.885.079 1.26l-.08.09-4.368 4.368a.954.954 0 01-1.428-1.26l.08-.09 2.579-2.579H6.954a.954.954 0 110-1.908l11.649-.001-2.466-2.466a1 1 0 01-.078-1.327l.078-.087.015-.015a1 1 0 011.32-.083z"
    ></path>
  </g>
</svg>