<svg
      xmlns="http://www.w3.org/2000/svg"
      width="24"
      height="24"
      fill="none"
      viewBox="0 0 24 24"
    >
      <path
        fill="currentColor"
        fillRule="evenodd"
        d="M5.717 3.541l-.088.03.073-.026-.021.008-.052.019-.019.007-.04.018a.943.943 0 00-.155.092l-.078.062-.003.003a.996.996 0 00-.262.375l-3 7.5-.037.11A.993.993 0 002 12a4 4 0 008 .037.996.996 0 00-.071-.408L7.477 5.5H11v13H4.889l-.104.007c-.442.057-.785.48-.785.993 0 .552.398 1 .889 1H19.11l.104-.007c.442-.057.785-.48.785-.993 0-.552-.398-1-.889-1H13v-13h3.522l-2.45 6.129-.037.11A.995.995 0 0014 12a4 4 0 008 .037.995.995 0 00-.071-.408L18.96 4.206c-.11-.409-.447-.706-.845-.706H6.066l-.015.001A.988.988 0 006 3.5h-.027l-.026.001a1.03 1.03 0 00-.163.023l-.068.017zM19.923 12L18 7.192 16.077 12h3.846zm-12 0L6 7.192 4.077 12h3.846z"
        clipRule="evenodd"
      ></path>
    </svg>