<svg
      xmlns="http://www.w3.org/2000/svg"
      width="24"
      height="24"
      viewBox="0 0 24 24"
    >
      <g fill="none" fillRule="evenodd" stroke="none" strokeWidth="1">
        <path
          fill="currentColor"
          d="M12 2c4.86 0 8.91 1.04 9.813 2.419l.031.045a.994.994 0 01.15.42L22 5v13c0 2.069-3.023 3.443-7.186 3.864l-.602.053-.616.04a29.492 29.492 0 01-3.192 0l-.616-.04-.602-.053c-4.064-.411-7.041-1.73-7.18-3.717L2 18V5c0-.197.057-.381.156-.536l.031-.045C3.09 3.04 7.14 2 12 2zm8.001 11.533c-1.278.664-3.087 1.118-5.187 1.33l-.602.054-.616.04a29.492 29.492 0 01-3.192 0l-.616-.04-.602-.053c-2.1-.213-3.908-.667-5.186-1.331V18c0 .227.277.483.773.734l.266.125.3.123.164.061.35.119.38.115c.265.075.548.146.849.213l.464.097.488.09.511.08c.26.037.53.071.806.101l.56.054.579.042a24.952 24.952 0 003.02 0l.578-.042.561-.054c.276-.03.545-.064.806-.101l.511-.08.488-.09.464-.097c.301-.067.584-.138.848-.213l.381-.115.35-.119.163-.06.301-.124.266-.125c.455-.23.725-.465.767-.677L20 18l.001-4.467zm0-6.733C18.178 7.529 15.273 8 12 8c-3.272 0-6.176-.471-8-1.2V11c0 .227.277.483.773.734l.266.125.3.123.164.061.35.119.38.115c.265.075.548.146.849.213l.464.097.488.09.511.08c.26.037.53.071.806.101l.56.054.579.042a24.952 24.952 0 003.02 0l.578-.042.561-.054c.276-.03.545-.064.806-.101l.511-.08.488-.09.464-.097c.301-.067.584-.138.848-.213l.381-.115.35-.119.163-.06.301-.124.266-.125c.496-.251.773-.507.773-.734z"
        ></path>
      </g>
    </svg>