<svg
      xmlns="http://www.w3.org/2000/svg"
      width="24"
      height="24"
      viewBox="0 0 24 24"
    >
      <g fill="none" fillRule="evenodd" stroke="none" strokeWidth="1">
        <path
          fill="currentColor"
          d="M11.102 4.277a3 3 0 012.321 0l7.752 3.252a2 2 0 01.025 3.678l-4.91 2.139 4.539 1.96a1 1 0 01.002 1.836l-7.77 3.384a2 2 0 01-1.597 0l-7.74-3.37a1 1 0 01.012-1.84l4.595-1.928-5.007-2.18A2 2 0 012.233 8.72l.057-.145a2 2 0 011.06-1.046zm1.547 1.844a1 1 0 00-.774 0L4.123 9.373l7.74 3.372a1 1 0 00.799 0l7.74-3.372z"
        ></path>
      </g>
    </svg>