<svg
      xmlns="http://www.w3.org/2000/svg"
      width="24"
      height="24"
      viewBox="0 0 24 24"
    >
      <g fill="none" fillRule="evenodd" stroke="none" strokeWidth="1">
        <path
          fill="currentColor"
          d="M12.983 2.198l.214.078.188-.058a3.288 3.288 0 011.95.062l.186.072c1.276.545 1.804 1.801 1.24 2.865l-.085.144-1.117 1.751 3.28 1.853c1.308.74 2.181 1.885 2.421 3.164l.038.242.678 5.475c.016.127.024.254.024.38 0 2.022-1.94 3.671-4.378 3.77l-.23.004H6.608a5.62 5.62 0 01-.465-.02c-2.455-.203-4.264-1.95-4.137-3.946l.018-.188.71-5.729c.137-1.11.75-2.141 1.725-2.914l.215-.161 2.62-1.875-.755-1.357c-.387-.697-.246-1.51.347-2.089l.134-.12c.563-.467 1.339-.656 2.074-.567l.023.003.04-.04c.91-.907 2.457-1.25 3.826-.799zm-2.229 2.276l-.037.068-.03.07c-.245.684-1.346.911-1.995.412a.141.141 0 00-.165.001.081.081 0 00-.034.066l.01.035.834 1.423h1.532c.614 0 1.12.36 1.19.822l.008.108c0 .477-.462.87-1.058.924l-.14.006H9.015L5.96 10.484c-.623.423-1.037.999-1.176 1.628l-.034.19-.738 5.65c-.133 1.022.825 1.935 2.142 2.038l.12.008.121.002h11.21C18.928 20 20 19.167 20 18.14l-.003-.094-.01-.094-.705-5.399c-.098-.751-.583-1.436-1.339-1.903l-.194-.112-4.28-2.293c-.456-.245-.631-.696-.442-1.09l.06-.106 1.65-2.456c.112-.166.03-.37-.184-.457a.539.539 0 00-.482.041c-.321.21-.756.272-1.147.171l-.144-.045-.587-.22c-.536-.2-1.18-.026-1.439.39zM12.42 10.4v.62l.232.023c.605.078 1.09.275 1.458.592.413.357.637.862.67 1.515h-1.57l-.026-.134c-.095-.387-.35-.622-.764-.706v1.46l.274.067c.71.184 1.249.417 1.616.698.413.317.62.795.62 1.435 0 .653-.233 1.17-.7 1.55-.467.38-1.07.587-1.81.62v.89h-.61v-.9l-.244-.021c-.717-.08-1.282-.299-1.696-.659-.46-.4-.697-.953-.71-1.66h1.66l.022.143c.101.505.424.798.968.877v-1.62l-.195-.05a12.01 12.01 0 01-.595-.17 5.476 5.476 0 01-.65-.265 1.875 1.875 0 01-.56-.375 1.68 1.68 0 01-.325-.535 2.033 2.033 0 01-.135-.765c0-.62.227-1.103.68-1.45.453-.347 1.047-.537 1.78-.57v-.61h.61zm0 4.97v1.44c.247-.033.448-.108.605-.225a.57.57 0 00.235-.485c0-.193-.065-.342-.195-.445-.13-.103-.345-.198-.645-.285zm-.61-3.08l-.149.021c-.19.035-.341.098-.456.189a.526.526 0 00-.215.43c0 .18.062.317.185.41.123.093.335.183.635.27v-1.32z"
        ></path>
      </g>
    </svg>