<svg
  xmlns="http://www.w3.org/2000/svg"
  width="24"
  height="24"
  viewBox="0 0 24 24"
>
  <g fill="none" fillRule="evenodd" stroke="none" strokeWidth="1">
    <path
      fill="currentColor"
      d="M16.358 13.432c.325-1.027 1.82-.885 1.947.184a3.334 3.334 0 002.24 2.767l.112.038c.907.307.905 1.59-.002 1.895l-.086.028a3.356 3.356 0 00-2.264 2.792l-.02.12c-.22.96-1.617 1.052-1.928.063l-.115-.367a4.2 4.2 0 00-2.475-2.653c-.834-.327-.85-1.502-.026-1.852l.219-.092a4.245 4.245 0 002.29-2.583zM9.12 2.839c.201-1.102 1.786-1.09 1.97.016l.146.88a6.923 6.923 0 005.158 5.582c1.05.26.996 1.77-.07 1.956l-.237.04a5.976 5.976 0 00-4.77 4.961l-.225 1.468c-.173 1.123-1.786 1.135-1.975.015l-.215-1.275a6.327 6.327 0 00-5.306-5.205c-1.088-.163-1.154-1.707-.085-1.962l.187-.045a7 7 0 005.26-5.548zm8.085 13.386l-.07.095c-.28.36-.6.69-.955.983l-.078.06.196.163c.33.286.628.606.89.955l.022.03.128-.178c.228-.308.49-.59.78-.843l.142-.12-.156-.13a5.34 5.34 0 01-.773-.838l-.126-.177zm-7.128-9.651l-.126.24a9.01 9.01 0 01-3.113 3.283l-.201.12.06.032A8.34 8.34 0 0110 13.595l.05.098.152-.295a7.987 7.987 0 013.024-3.117l.156-.088-.062-.037a8.933 8.933 0 01-3.162-3.422l-.081-.16z"
    ></path>
  </g>
</svg>