<svg
      xmlns="http://www.w3.org/2000/svg"
      width="24"
      height="24"
      viewBox="0 0 24 24"
    >
      <g fill="none" fillRule="evenodd" stroke="none" strokeWidth="1">
        <path
          fill="currentColor"
          d="M19 5c1.657 0 3 1.308 3 2.922v9.156C22 18.692 20.657 20 19 20a3.062 3.062 0 01-1.488-.385L14 17.661H9.959L6.494 19.6c-1.437.804-3.27.32-4.096-1.079A2.863 2.863 0 012 17.065V7.922C2 6.308 3.343 5 5 5h14zm0 1.948H5a.991.991 0 00-.993.86L4 7.922v9.143c0 .17.046.338.133.485.255.433.8.603 1.26.41l.105-.05 3.465-1.938c.252-.141.533-.227.822-.251l.174-.008H14c.29 0 .576.062.838.18l.154.077 3.512 1.954c.151.084.322.128.496.128a.991.991 0 00.993-.86l.007-.114V7.922c0-.5-.386-.911-.883-.968L19 6.948zM14.5 11.5a1.5 1.5 0 110 3 1.5 1.5 0 010-3zM8 8.409a1 1 0 011 1v.947h1.026a.974.974 0 010 1.948H9v.948a1 1 0 01-2 0v-.948H5.974a.974.974 0 110-1.947L7 10.356v-.947a1 1 0 011-1zm9.5.091a1.5 1.5 0 110 3 1.5 1.5 0 010-3z"
        ></path>
      </g>
    </svg>